<svg id="svg" version="1.1" xmlns="http://www.w3.org/2000/svg" xmlns:xlink="http://www.w3.org/1999/xlink" width="400" height="335.3191489361702" viewBox="0, 0, 400,335.3191489361702"><g id="svgg"><path id="path0" d="M180.453 74.173 C 167.081 76.424,149.187 88.552,137.810 103.076 C 136.351 104.939,132.847 110.449,131.551 112.919 C 130.777 114.396,130.025 115.755,129.879 115.940 C 129.734 116.124,129.414 116.879,129.167 117.617 C 128.921 118.356,128.610 119.114,128.476 119.303 C 126.705 121.800,123.260 135.341,122.460 142.949 C 121.268 154.282,123.494 171.115,127.364 180.034 C 127.604 180.587,128.351 182.324,129.024 183.893 C 137.040 202.575,153.022 218.101,172.315 225.949 C 177.448 228.037,183.283 229.630,181.208 228.377 C 180.747 228.098,179.497 227.619,178.430 227.311 C 177.364 227.004,176.412 226.622,176.313 226.463 C 176.215 226.304,175.905 226.174,175.624 226.174 C 174.656 226.174,168.189 223.254,164.262 221.042 C 122.133 197.322,110.430 142.177,139.394 103.859 C 147.227 93.495,159.378 83.786,170.470 79.026 C 171.669 78.512,173.462 77.735,174.453 77.300 C 175.445 76.866,176.397 76.510,176.569 76.510 C 176.741 76.510,177.516 76.225,178.290 75.877 C 179.064 75.529,180.176 75.142,180.761 75.017 C 181.345 74.893,181.907 74.574,182.008 74.308 C 182.110 74.043,182.161 73.843,182.120 73.865 C 182.080 73.887,181.330 74.025,180.453 74.173 M222.814 77.936 C 222.758 106.674,222.822 227.297,222.894 227.368 C 223.603 228.077,236.019 223.484,240.919 220.700 C 287.536 194.210,295.576 131.845,257.173 94.617 C 250.493 88.142,242.031 82.489,234.386 79.396 C 232.731 78.726,231.149 78.052,230.872 77.898 C 230.239 77.547,223.681 75.503,223.186 75.503 C 222.954 75.503,222.817 76.402,222.814 77.936 " stroke="none" fill="#fbd29a" fill-rule="evenodd"></path><path id="path1" d="M193.289 71.146 C 192.643 71.296,190.831 71.594,189.262 71.810 C 186.860 72.141,180.855 73.462,179.230 74.017 C 178.315 74.330,179.052 74.420,180.588 74.183 C 182.419 73.900,182.571 74.632,180.761 75.017 C 180.176 75.142,179.064 75.529,178.290 75.877 C 177.516 76.225,176.741 76.510,176.569 76.510 C 176.397 76.510,175.445 76.866,174.453 77.300 C 173.462 77.735,171.669 78.512,170.470 79.026 C 165.423 81.192,157.929 85.840,152.685 90.058 C 149.754 92.415,144.631 97.298,144.631 97.734 C 144.631 97.899,145.952 96.721,147.567 95.116 C 151.440 91.266,160.859 84.228,162.137 84.228 C 162.282 84.228,162.398 114.581,162.396 151.678 C 162.393 188.775,162.276 219.128,162.136 219.128 C 160.507 219.128,151.400 211.878,145.313 205.735 C 142.827 203.227,141.564 202.081,142.505 203.188 C 147.380 208.922,154.088 214.743,160.570 218.866 C 165.161 221.786,174.201 226.174,175.624 226.174 C 175.905 226.174,176.215 226.304,176.313 226.463 C 176.412 226.622,177.364 227.004,178.430 227.311 C 181.175 228.103,182.597 228.972,180.705 228.702 C 178.120 228.332,180.342 229.095,184.499 230.005 C 200.096 233.418,218.523 232.104,231.376 226.661 C 232.483 226.192,233.798 225.652,234.297 225.460 C 236.059 224.785,241.116 222.080,241.800 221.447 C 242.181 221.094,242.672 220.805,242.891 220.805 C 243.110 220.805,243.289 220.609,243.289 220.369 C 243.289 220.129,244.459 219.157,245.889 218.209 C 249.036 216.124,255.369 211.102,255.369 210.693 C 255.369 210.531,254.274 211.324,252.936 212.456 C 250.729 214.322,243.907 219.003,240.919 220.700 C 236.016 223.486,223.603 228.077,222.893 227.368 C 222.715 227.189,222.797 75.749,222.976 75.570 C 223.165 75.381,228.742 76.995,230.369 77.710 C 230.923 77.953,232.731 78.706,234.386 79.383 C 244.736 83.614,255.978 92.143,263.665 101.594 C 266.290 104.821,267.267 105.740,265.458 103.279 C 262.213 98.868,256.097 92.676,251.174 88.820 C 250.067 87.953,248.949 87.066,248.690 86.849 C 247.632 85.963,244.961 84.228,244.655 84.228 C 244.474 84.228,244.055 83.848,243.724 83.384 C 242.121 81.138,234.916 77.197,228.345 74.971 C 223.260 73.248,219.392 72.362,211.823 71.185 C 209.077 70.758,195.095 70.729,193.289 71.146 M174.581 75.514 C 173.419 75.981,173.686 76.187,174.916 75.772 C 175.516 75.569,176.070 75.351,176.147 75.286 C 176.419 75.055,175.324 75.215,174.581 75.514 M142.909 99.581 C 141.412 101.168,139.125 104.027,139.353 104.027 C 139.448 104.027,140.606 102.743,141.927 101.174 C 144.471 98.154,144.877 97.494,142.909 99.581 M137.834 105.956 C 135.794 108.784,135.655 109.342,137.645 106.711 C 139.004 104.916,139.357 104.362,139.142 104.362 C 139.055 104.362,138.466 105.080,137.834 105.956 M267.114 106.040 C 267.508 106.594,267.906 107.047,267.999 107.047 C 268.091 107.047,267.844 106.594,267.450 106.040 C 267.055 105.487,266.657 105.034,266.565 105.034 C 266.473 105.034,266.720 105.487,267.114 106.040 M268.335 107.802 C 269.475 109.683,271.176 112.146,271.040 111.719 C 270.815 111.016,268.485 107.383,268.258 107.383 C 268.161 107.383,268.196 107.571,268.335 107.802 M135.664 109.144 C 135.008 109.992,134.784 110.513,135.181 110.268 C 135.579 110.022,136.374 108.725,136.127 108.725 C 136.051 108.725,135.842 108.914,135.664 109.144 M134.060 111.745 C 133.774 112.299,133.615 112.752,133.708 112.752 C 133.800 112.752,134.110 112.299,134.396 111.745 C 134.682 111.191,134.841 110.738,134.749 110.738 C 134.656 110.738,134.347 111.191,134.060 111.745 M271.800 113.674 C 272.183 114.459,272.555 115.101,272.626 115.101 C 272.922 115.101,272.400 113.868,271.775 113.087 C 271.125 112.276,271.126 112.295,271.800 113.674 M132.198 115.133 C 131.812 115.889,131.554 116.566,131.625 116.636 C 131.695 116.706,132.081 116.088,132.483 115.261 C 133.397 113.379,133.150 113.268,132.198 115.133 M273.388 116.607 C 273.695 117.250,274.005 117.717,274.078 117.644 C 274.232 117.491,273.213 115.436,272.983 115.436 C 272.899 115.436,273.081 115.963,273.388 116.607 M131.070 117.401 C 130.699 118.001,130.173 119.615,130.452 119.295 C 130.823 118.871,131.577 117.114,131.388 117.114 C 131.311 117.114,131.168 117.243,131.070 117.401 M274.525 118.960 C 274.525 119.144,274.814 119.824,275.168 120.470 C 275.521 121.116,275.811 121.493,275.811 121.309 C 275.811 121.124,275.521 120.445,275.168 119.799 C 274.814 119.153,274.525 118.775,274.525 118.960 M129.232 121.514 C 129.025 122.107,128.915 122.651,128.987 122.723 C 129.058 122.794,129.286 122.368,129.493 121.775 C 129.700 121.182,129.810 120.638,129.738 120.566 C 129.667 120.494,129.439 120.921,129.232 121.514 M276.202 122.819 C 276.187 122.911,276.470 123.742,276.830 124.664 C 277.191 125.587,277.488 126.116,277.492 125.839 C 277.499 125.363,276.259 122.462,276.202 122.819 M127.517 126.007 C 127.295 126.677,127.194 127.306,127.291 127.403 C 127.388 127.500,127.626 127.008,127.819 126.309 C 128.275 124.658,128.039 124.423,127.517 126.007 M278.065 128.356 C 278.418 129.952,278.899 130.911,278.654 129.530 C 278.540 128.884,278.311 128.129,278.145 127.852 C 277.948 127.523,277.920 127.698,278.065 128.356 M125.695 132.071 C 125.572 132.563,125.535 133.030,125.615 133.109 C 125.694 133.188,125.859 132.850,125.983 132.359 C 126.106 131.867,126.142 131.400,126.063 131.321 C 125.984 131.242,125.819 131.579,125.695 132.071 M279.756 134.732 C 280.081 136.768,280.565 138.064,280.319 136.242 C 280.207 135.411,279.986 134.430,279.828 134.060 C 279.643 133.628,279.617 133.866,279.756 134.732 M124.342 138.771 C 124.212 139.810,124.175 140.730,124.261 140.815 C 124.346 140.901,124.522 140.120,124.652 139.081 C 124.781 138.042,124.818 137.122,124.733 137.037 C 124.648 136.952,124.472 137.732,124.342 138.771 M209.017 138.908 C 213.681 140.255,216.422 142.461,217.335 145.605 C 217.635 146.638,218.106 147.828,218.382 148.249 C 218.999 149.191,218.750 149.510,217.797 148.999 C 216.829 148.481,208.579 148.895,207.258 149.528 C 206.115 150.075,205.703 149.909,205.942 148.997 C 206.556 146.650,200.215 144.347,196.750 145.660 C 191.536 147.636,191.630 157.349,196.885 159.604 C 200.386 161.106,206.040 158.924,206.040 156.070 C 206.040 154.846,206.305 154.639,207.169 155.188 C 208.176 155.828,216.035 156.434,217.626 155.995 C 219.317 155.528,219.368 155.710,218.270 158.301 C 216.434 162.637,213.122 165.061,207.075 166.494 C 205.491 166.869,204.150 167.219,204.096 167.272 C 204.042 167.324,204.252 169.783,204.563 172.735 C 205.143 178.241,205.074 179.650,204.207 179.982 C 202.622 180.591,202.437 178.780,203.231 170.452 C 203.481 167.824,203.019 167.111,201.067 167.119 C 198.223 167.129,198.235 167.112,198.498 170.977 C 198.741 174.545,198.468 175.457,197.458 174.447 C 197.074 174.064,197.058 173.437,197.363 170.858 C 197.784 167.294,197.585 166.731,196.135 167.391 L 195.272 167.784 195.505 172.474 C 195.715 176.723,195.683 177.185,195.161 177.385 C 194.107 177.789,193.980 177.085,194.225 172.199 C 194.493 166.822,194.604 167.100,191.946 166.461 C 177.857 163.071,177.513 143.129,191.474 139.070 C 196.192 137.699,204.561 137.621,209.017 138.908 M281.484 150.168 C 281.567 154.044,281.690 157.278,281.757 157.355 C 281.969 157.597,281.811 147.582,281.567 145.302 C 281.438 144.102,281.401 146.292,281.484 150.168 M123.568 145.973 C 123.568 146.619,123.637 146.883,123.721 146.560 C 123.806 146.237,123.806 145.709,123.721 145.386 C 123.637 145.063,123.568 145.327,123.568 145.973 M123.597 155.034 C 123.597 156.233,123.658 156.724,123.733 156.124 C 123.807 155.524,123.807 154.543,123.733 153.943 C 123.658 153.343,123.597 153.834,123.597 155.034 M281.304 159.228 C 281.307 160.151,281.372 160.489,281.449 159.979 C 281.526 159.469,281.524 158.713,281.444 158.301 C 281.365 157.888,281.302 158.305,281.304 159.228 M124.246 162.584 C 124.249 163.322,124.318 163.585,124.398 163.167 C 124.479 162.750,124.476 162.146,124.392 161.825 C 124.308 161.504,124.242 161.846,124.246 162.584 M279.890 167.977 C 279.659 169.008,279.535 169.915,279.614 169.995 C 279.693 170.074,279.947 169.295,280.177 168.265 C 280.408 167.234,280.532 166.326,280.453 166.247 C 280.374 166.168,280.120 166.946,279.890 167.977 M125.716 170.638 C 126.069 172.234,126.550 173.193,126.305 171.812 C 126.191 171.166,125.962 170.411,125.796 170.134 C 125.599 169.805,125.571 169.980,125.716 170.638 M278.221 174.362 C 278.028 175.061,277.927 175.690,277.996 175.759 C 278.065 175.828,278.302 175.335,278.523 174.664 C 278.745 173.994,278.846 173.365,278.749 173.268 C 278.652 173.171,278.414 173.663,278.221 174.362 M276.547 179.232 C 276.059 180.632,276.292 180.866,276.846 179.530 C 277.080 178.965,277.193 178.424,277.097 178.328 C 277.002 178.232,276.754 178.639,276.547 179.232 M129.051 180.872 C 129.175 181.334,129.416 181.938,129.587 182.215 C 129.803 182.565,129.829 182.462,129.673 181.879 C 129.550 181.418,129.309 180.814,129.138 180.537 C 128.922 180.187,128.895 180.289,129.051 180.872 M275.060 183.069 C 274.272 184.722,274.383 185.004,275.207 183.441 C 275.581 182.732,275.828 182.092,275.756 182.020 C 275.683 181.947,275.370 182.419,275.060 183.069 M130.229 183.725 C 130.229 183.909,130.519 184.589,130.872 185.235 C 131.226 185.881,131.515 186.258,131.515 186.074 C 131.515 185.889,131.226 185.210,130.872 184.564 C 130.519 183.918,130.229 183.540,130.229 183.725 M273.388 186.749 C 273.081 187.393,272.899 187.919,272.983 187.919 C 273.213 187.919,274.232 185.865,274.078 185.711 C 274.005 185.638,273.695 186.106,273.388 186.749 M132.383 188.255 C 132.850 189.178,133.308 189.933,133.401 189.933 C 133.493 189.933,133.186 189.178,132.718 188.255 C 132.250 187.332,131.792 186.577,131.700 186.577 C 131.608 186.577,131.915 187.332,132.383 188.255 M271.812 189.597 C 271.435 190.336,271.203 190.940,271.295 190.940 C 271.387 190.940,271.771 190.336,272.148 189.597 C 272.524 188.859,272.757 188.255,272.665 188.255 C 272.572 188.255,272.189 188.859,271.812 189.597 M134.060 191.275 C 134.347 191.829,134.656 192.282,134.749 192.282 C 134.841 192.282,134.682 191.829,134.396 191.275 C 134.110 190.721,133.800 190.268,133.708 190.268 C 133.615 190.268,133.774 190.721,134.060 191.275 M269.630 193.372 C 268.146 195.820,265.288 199.759,263.178 202.264 C 262.362 203.233,261.895 203.943,262.139 203.843 C 262.958 203.507,268.214 196.420,270.278 192.869 C 271.647 190.514,271.109 190.932,269.630 193.372 M135.192 193.121 C 135.373 193.490,135.767 194.094,136.068 194.463 L 136.614 195.134 136.285 194.463 C 136.103 194.094,135.709 193.490,135.409 193.121 L 134.862 192.450 135.192 193.121 M138.543 198.238 C 138.963 198.838,139.378 199.329,139.464 199.329 C 139.754 199.329,138.968 198.104,138.370 197.623 C 137.950 197.286,138.000 197.464,138.543 198.238 M258.612 207.243 C 256.981 208.826,255.705 210.179,255.777 210.251 C 255.849 210.323,257.255 209.027,258.903 207.372 C 260.551 205.717,261.826 204.363,261.738 204.364 C 261.650 204.365,260.243 205.661,258.612 207.243 M175.336 227.311 C 175.889 227.563,176.720 227.862,177.181 227.975 C 177.855 228.140,177.822 228.091,177.013 227.723 C 176.460 227.470,175.629 227.172,175.168 227.058 C 174.494 226.893,174.527 226.943,175.336 227.311 " stroke="none" fill="#faa345" fill-rule="evenodd"></path><path id="path2" d="M0.000 167.785 L 0.000 335.570 200.000 335.570 L 400.000 335.570 400.000 167.785 L 400.000 0.000 200.000 0.000 L 0.000 0.000 0.000 167.785 M212.337 71.105 C 212.657 71.270,214.716 71.647,216.912 71.944 C 219.108 72.240,221.071 72.613,221.274 72.772 C 221.478 72.931,222.232 73.152,222.949 73.262 C 224.417 73.488,230.858 75.458,231.376 75.840 C 231.560 75.976,232.311 76.280,233.044 76.517 C 234.407 76.956,243.992 81.772,244.295 82.169 C 244.388 82.290,245.029 82.686,245.721 83.049 C 246.414 83.413,246.980 83.808,246.980 83.928 C 246.980 84.048,247.433 84.334,247.987 84.564 C 248.540 84.793,248.993 85.103,248.993 85.253 C 248.993 85.403,249.258 85.610,249.581 85.714 C 249.904 85.817,250.572 86.243,251.065 86.659 C 251.559 87.075,252.453 87.794,253.051 88.255 C 258.578 92.513,266.016 100.644,269.935 106.711 C 270.471 107.542,271.213 108.663,271.583 109.204 C 272.577 110.656,276.674 118.765,277.166 120.254 C 277.399 120.962,277.798 121.941,278.051 122.430 C 278.305 122.918,278.690 124.112,278.907 125.082 C 279.124 126.052,279.415 126.846,279.554 126.846 C 279.693 126.846,279.911 127.460,280.037 128.210 C 280.164 128.961,280.540 130.358,280.872 131.314 C 281.205 132.271,281.669 134.488,281.904 136.242 C 282.139 137.995,282.453 139.593,282.602 139.792 C 283.592 141.115,283.560 162.062,282.565 164.055 C 282.416 164.353,282.048 166.169,281.748 168.090 C 281.448 170.011,281.078 171.747,280.925 171.949 C 280.773 172.150,280.455 173.221,280.219 174.329 C 279.984 175.436,279.675 176.493,279.533 176.678 C 279.392 176.862,279.016 177.919,278.698 179.027 C 278.381 180.134,278.022 181.116,277.901 181.208 C 277.780 181.300,277.472 181.980,277.217 182.718 C 276.667 184.311,273.462 191.034,273.138 191.275 C 273.014 191.367,272.645 191.964,272.319 192.601 C 271.992 193.238,271.518 193.966,271.265 194.219 C 271.012 194.472,270.805 194.832,270.805 195.019 C 270.805 195.458,268.755 198.407,268.205 198.758 C 267.974 198.906,267.785 199.244,267.785 199.510 C 267.785 199.777,267.483 200.183,267.114 200.413 C 266.745 200.644,266.443 200.962,266.443 201.121 C 266.443 202.164,257.776 211.094,253.356 214.606 C 250.200 217.113,243.694 221.477,243.111 221.477 C 242.870 221.477,242.623 221.594,242.562 221.739 C 242.438 222.027,234.897 225.846,234.458 225.842 C 234.308 225.840,233.402 226.196,232.445 226.632 C 231.488 227.068,230.327 227.530,229.866 227.659 C 229.404 227.789,228.725 228.036,228.356 228.209 C 226.986 228.850,222.031 230.024,214.765 231.430 C 209.743 232.402,195.333 232.306,189.597 231.263 C 142.272 222.656,113.810 179.345,124.177 131.711 C 124.579 129.866,125.017 128.280,125.150 128.188 C 125.284 128.096,125.655 126.966,125.975 125.678 C 126.295 124.389,126.677 123.181,126.825 122.993 C 126.973 122.805,127.284 122.047,127.516 121.309 C 127.749 120.570,128.132 119.589,128.368 119.128 C 128.603 118.666,129.366 117.081,130.063 115.604 C 130.759 114.128,131.420 112.844,131.530 112.752 C 131.640 112.659,132.013 111.942,132.359 111.158 C 132.705 110.373,133.078 109.730,133.189 109.728 C 133.299 109.726,133.678 109.122,134.030 108.385 C 134.383 107.649,134.770 107.047,134.891 107.047 C 135.012 107.047,135.363 106.518,135.671 105.872 C 135.979 105.227,136.384 104.698,136.572 104.698 C 136.759 104.698,136.913 104.473,136.913 104.197 C 136.913 103.922,137.215 103.508,137.584 103.278 C 137.953 103.047,138.257 102.706,138.260 102.520 C 138.263 102.334,138.720 101.653,139.274 101.007 C 139.829 100.361,140.922 99.085,141.702 98.173 C 144.755 94.602,150.712 89.080,153.847 86.913 C 155.251 85.942,157.369 84.388,157.953 83.899 C 158.174 83.714,158.891 83.307,159.547 82.994 C 160.202 82.682,160.738 82.326,160.738 82.204 C 160.738 82.081,161.380 81.698,162.164 81.352 C 162.949 81.006,163.666 80.636,163.758 80.530 C 164.108 80.127,171.035 76.846,172.399 76.438 C 173.184 76.203,173.826 75.912,173.826 75.791 C 173.826 75.669,174.618 75.384,175.587 75.156 C 176.556 74.928,177.727 74.553,178.188 74.322 C 178.649 74.091,179.933 73.726,181.040 73.511 C 182.148 73.296,183.356 72.980,183.725 72.810 C 184.616 72.400,190.111 71.479,191.675 71.478 C 192.356 71.477,193.007 71.326,193.121 71.141 C 193.383 70.716,211.515 70.682,212.337 71.105 " stroke="none" fill="#050504" fill-rule="evenodd"></path><path id="path3" d="M124.871 128.580 C 124.850 128.888,124.745 129.416,124.639 129.754 C 124.456 130.337,124.466 130.338,124.829 129.771 C 125.040 129.443,125.145 128.914,125.062 128.597 C 124.925 128.077,124.906 128.076,124.871 128.580 M123.364 135.080 C 123.249 135.380,123.170 135.953,123.189 136.353 C 123.210 136.813,123.324 136.649,123.499 135.908 C 123.792 134.661,123.712 134.172,123.364 135.080 M194.910 138.241 C 185.794 139.904,181.381 144.568,181.403 152.517 C 181.424 159.924,185.126 164.820,191.946 166.461 C 194.604 167.100,194.493 166.822,194.225 172.199 C 193.980 177.085,194.107 177.789,195.161 177.385 C 195.683 177.185,195.715 176.723,195.505 172.474 L 195.272 167.784 196.135 167.391 C 197.585 166.731,197.784 167.294,197.363 170.858 C 197.058 173.437,197.074 174.064,197.458 174.447 C 198.468 175.457,198.741 174.545,198.498 170.977 C 198.235 167.112,198.223 167.129,201.067 167.119 C 203.019 167.111,203.481 167.824,203.231 170.452 C 202.437 178.780,202.622 180.591,204.207 179.982 C 205.074 179.650,205.143 178.241,204.563 172.735 C 204.252 169.783,204.042 167.324,204.096 167.272 C 204.150 167.219,205.535 166.858,207.173 166.470 C 213.078 165.071,216.301 162.655,218.144 158.244 C 219.248 155.604,219.242 155.549,217.916 156.058 C 216.673 156.535,208.219 155.849,207.169 155.185 C 206.305 154.639,206.040 154.847,206.040 156.070 C 206.040 158.924,200.386 161.106,196.885 159.604 C 191.630 157.349,191.536 147.636,196.750 145.660 C 200.215 144.347,206.556 146.650,205.942 148.997 C 205.699 149.925,206.122 150.075,207.307 149.484 C 208.052 149.112,209.686 148.959,213.507 148.902 C 218.601 148.827,218.687 148.813,218.278 148.154 C 218.049 147.785,217.613 146.712,217.309 145.769 C 215.421 139.914,204.980 136.405,194.910 138.241 M121.929 150.000 C 121.929 151.569,121.987 152.211,122.058 151.426 C 122.128 150.642,122.128 149.358,122.058 148.574 C 121.987 147.789,121.929 148.431,121.929 150.000 M122.232 158.221 C 122.236 158.960,122.305 159.222,122.385 158.805 C 122.465 158.387,122.462 157.783,122.378 157.463 C 122.294 157.142,122.229 157.483,122.232 158.221 M122.702 162.694 C 122.806 163.862,123.020 165.221,123.178 165.714 C 123.514 166.762,123.242 164.073,122.793 161.913 C 122.582 160.894,122.560 161.083,122.702 162.694 M124.186 170.470 C 124.155 171.207,124.853 173.581,125.045 173.389 C 125.135 173.299,124.984 172.492,124.708 171.596 C 124.433 170.700,124.198 170.193,124.186 170.470 M125.880 176.510 C 125.874 176.787,126.077 177.466,126.330 178.020 C 126.924 179.316,126.932 178.713,126.342 177.181 C 126.094 176.535,125.885 176.233,125.880 176.510 M127.573 181.225 C 127.769 181.788,127.992 182.187,128.068 182.111 C 128.234 181.944,127.601 180.201,127.375 180.201 C 127.288 180.201,127.377 180.662,127.573 181.225 M129.195 185.021 C 129.195 185.385,131.197 189.262,131.386 189.262 C 131.478 189.262,131.080 188.318,130.502 187.164 C 129.406 184.978,129.195 184.631,129.195 185.021 M132.383 191.275 C 132.669 191.829,132.979 192.282,133.071 192.282 C 133.163 192.282,133.004 191.829,132.718 191.275 C 132.432 190.721,132.122 190.268,132.030 190.268 C 131.937 190.268,132.096 190.721,132.383 191.275 M138.217 200.281 C 138.590 200.805,139.160 201.447,139.484 201.708 C 139.809 201.968,139.564 201.539,138.941 200.755 C 137.660 199.144,137.186 198.834,138.217 200.281 M142.785 205.705 C 143.506 206.443,144.171 207.047,144.264 207.047 C 144.356 207.047,143.842 206.443,143.121 205.705 C 142.400 204.966,141.735 204.362,141.642 204.362 C 141.550 204.362,142.064 204.966,142.785 205.705 M148.468 211.351 C 149.010 211.936,150.369 213.119,151.488 213.980 C 154.019 215.926,153.325 215.188,150.000 212.398 C 148.616 211.237,147.926 210.766,148.468 211.351 " stroke="none" fill="#85c282" fill-rule="evenodd"></path><path id="path4" d="M219.167 72.299 C 219.280 72.411,219.873 72.648,220.485 72.823 C 221.098 72.999,221.458 73.014,221.286 72.856 C 220.930 72.530,218.851 71.983,219.167 72.299 M233.893 77.005 C 233.893 77.202,235.772 78.189,236.141 78.186 C 236.289 78.184,235.956 77.883,235.403 77.517 C 234.418 76.864,233.893 76.686,233.893 77.005 M237.514 78.907 C 238.122 79.296,238.702 79.531,238.804 79.429 C 238.905 79.327,238.529 79.006,237.967 78.716 C 236.499 77.957,236.217 78.076,237.514 78.907 M239.262 79.668 C 239.262 79.732,240.072 80.342,241.063 81.024 C 242.053 81.707,243.190 82.707,243.590 83.247 C 243.989 83.786,244.466 84.228,244.649 84.228 C 244.963 84.228,247.661 85.981,248.690 86.854 C 248.949 87.074,250.075 87.970,251.192 88.845 C 280.674 111.945,290.239 153.039,273.862 186.242 C 267.463 199.214,256.760 211.303,245.050 218.786 C 244.081 219.405,243.289 220.113,243.289 220.359 C 243.289 220.604,243.110 220.805,242.891 220.805 C 242.672 220.805,242.181 221.094,241.800 221.447 C 241.045 222.146,235.841 224.891,234.159 225.477 C 233.583 225.678,233.199 225.928,233.304 226.034 C 233.843 226.573,243.613 221.451,248.985 217.813 C 255.027 213.722,266.443 202.806,266.443 201.121 C 266.443 200.962,266.745 200.644,267.114 200.413 C 267.483 200.183,267.785 199.777,267.785 199.510 C 267.785 199.244,267.974 198.906,268.205 198.758 C 268.755 198.407,270.805 195.458,270.805 195.019 C 270.805 194.832,271.012 194.472,271.265 194.219 C 271.518 193.966,271.992 193.238,272.319 192.601 C 272.645 191.964,273.014 191.367,273.138 191.275 C 273.462 191.034,276.667 184.311,277.217 182.718 C 277.472 181.980,277.780 181.300,277.901 181.208 C 278.022 181.116,278.381 180.134,278.698 179.027 C 279.016 177.919,279.392 176.862,279.533 176.678 C 279.675 176.493,279.984 175.436,280.219 174.329 C 280.455 173.221,280.773 172.150,280.925 171.949 C 281.078 171.747,281.448 170.011,281.748 168.090 C 282.048 166.169,282.416 164.353,282.565 164.055 C 283.560 162.062,283.592 141.115,282.602 139.792 C 282.453 139.593,282.139 137.995,281.904 136.242 C 281.669 134.488,281.205 132.271,280.872 131.314 C 280.540 130.358,280.164 128.961,280.037 128.210 C 279.911 127.460,279.693 126.846,279.554 126.846 C 279.415 126.846,279.124 126.052,278.907 125.082 C 278.690 124.112,278.305 122.918,278.051 122.430 C 277.798 121.941,277.399 120.962,277.166 120.254 C 276.674 118.765,272.577 110.656,271.583 109.204 C 271.213 108.663,270.471 107.542,269.935 106.711 C 266.016 100.644,258.578 92.513,253.051 88.255 C 252.453 87.794,251.559 87.075,251.065 86.659 C 250.572 86.243,249.904 85.817,249.581 85.714 C 249.258 85.610,248.993 85.403,248.993 85.253 C 248.993 85.103,248.540 84.793,247.987 84.564 C 247.433 84.334,246.980 84.048,246.980 83.928 C 246.980 83.808,246.414 83.413,245.721 83.049 C 245.029 82.686,244.388 82.304,244.295 82.201 C 243.829 81.678,239.262 79.379,239.262 79.668 M159.949 85.387 C 153.015 89.562,143.361 98.541,138.825 105.034 C 126.803 122.240,121.401 142.817,124.174 160.836 C 125.229 167.689,126.757 174.574,127.521 175.918 C 127.703 176.239,127.852 176.657,127.852 176.848 C 127.852 179.112,134.886 192.948,138.370 197.537 C 138.953 198.306,139.732 199.359,140.101 199.879 C 144.106 205.522,159.682 219.128,162.138 219.128 C 162.277 219.128,162.393 188.775,162.396 151.678 C 162.398 114.581,162.282 84.228,162.137 84.228 C 161.992 84.228,161.007 84.750,159.949 85.387 M231.040 226.851 C 230.292 227.219,230.069 227.419,230.537 227.304 C 231.517 227.063,233.209 226.204,232.718 226.197 C 232.534 226.194,231.779 226.489,231.040 226.851 M225.503 228.714 L 224.329 229.189 225.503 228.985 C 226.835 228.755,228.064 228.197,227.181 228.224 C 226.904 228.232,226.149 228.453,225.503 228.714 M219.295 230.201 C 218.391 230.431,218.374 230.458,219.128 230.464 C 219.589 230.467,220.344 230.349,220.805 230.201 C 221.933 229.840,220.715 229.840,219.295 230.201 M210.151 231.775 C 210.474 231.859,211.003 231.859,211.326 231.775 C 211.648 231.691,211.384 231.621,210.738 231.621 C 210.092 231.621,209.828 231.691,210.151 231.775 M200.100 232.129 C 201.724 232.191,204.291 232.191,205.805 232.129 C 207.319 232.067,205.990 232.016,202.852 232.017 C 199.715 232.017,198.476 232.068,200.100 232.129 " stroke="none" fill="#f48713" fill-rule="evenodd"></path></g></svg>